<svg xmlns="http://www.w3.org/2000/svg" width="8" height="14" viewBox="0 0 8 14">
    <path fill="#FFF" fill-rule="evenodd" d="M1.515 13.286V7.979H.861a.365.365 0 0 1-.365-.365V6.326c0-.212.154-.366.365-.366h.654V3.884C1.515 1.346 3.072 0 5.11 0c1.02 0 1.923.442 2.27.75a.38.38 0 0 1 .076.442l-.654 1.23c-.077.154-.288.193-.461.097-.25-.154-.712-.385-1.135-.385-.826 0-1.288.635-1.288 1.75V5.96h1.923c.211 0 .365.154.365.366v1.288a.365.365 0 0 1-.365.365H3.918v5.307a.378.378 0 0 1-.365.365H1.88a.378.378 0 0 1-.365-.365z" opacity=".347"/>
</svg>
