<svg xmlns="http://www.w3.org/2000/svg" width="18" height="13" viewBox="0 0 18 13">
    <path fill="#FFF" fill-rule="nonzero" d="M17.498 2.234c-.167-.893-.96-1.544-1.88-1.747C14.241.203 11.693 0 8.936 0 6.181 0 3.592.203 2.214.487 1.295.69.5 1.3.334 2.234A25.945 25.945 0 0 0 0 6.5c0 1.828.166 3.25.375 4.266.168.893.961 1.544 1.88 1.747 1.461.284 3.967.487 6.724.487s5.262-.203 6.724-.487c.919-.203 1.711-.813 1.88-1.747.166-1.016.375-2.48.417-4.266-.085-1.828-.294-3.25-.502-4.266zM6.682 9.344V3.656L11.777 6.5 6.682 9.344z" opacity=".347"/>
</svg>
