<svg xmlns="http://www.w3.org/2000/svg" width="7" height="12" viewBox="0 0 7 12">
    <path fill="#FFF" fill-rule="evenodd" d="M1.344 11.696V7.28H.8a.304.304 0 0 1-.304-.304V5.904c0-.176.128-.304.304-.304h.544V3.872C1.344 1.76 2.64.64 4.336.64c.848 0 1.6.368 1.888.624.096.08.128.256.064.368l-.544 1.024c-.064.128-.24.16-.384.08-.208-.128-.592-.32-.944-.32-.688 0-1.072.528-1.072 1.456V5.6h1.6c.176 0 .304.128.304.304v1.072c0 .16-.128.304-.304.304h-1.6v4.416c0 .16-.144.304-.304.304H1.648a.315.315 0 0 1-.304-.304z" opacity=".347"/>
</svg>
