<svg xmlns="http://www.w3.org/2000/svg" width="13" height="13" viewBox="0 0 13 13">
    <path fill="#FFF" fill-rule="nonzero" d="M3.79 0A3.796 3.796 0 0 0 0 3.793v5.416C0 11.3 1.702 13 3.793 13h5.416C11.3 13 13 11.298 13 9.207V3.791C13 1.7 11.298 0 9.207 0H3.791zm6.502 2.167a.542.542 0 1 1 0 1.083.542.542 0 0 1 0-1.083zM6.5 3.25A3.253 3.253 0 0 1 9.75 6.5 3.253 3.253 0 0 1 6.5 9.75 3.253 3.253 0 0 1 3.25 6.5 3.253 3.253 0 0 1 6.5 3.25zm0 1.083a2.167 2.167 0 1 0 0 4.334 2.167 2.167 0 0 0 0-4.334z" opacity=".347"/>
</svg>
