<svg xmlns="http://www.w3.org/2000/svg" width="15" height="12" viewBox="0 0 15 12">
    <g fill="#A1A1A1" fill-rule="nonzero">
        <path d="M.474 9C.212 9 0 8.8 0 8.553V3.447C0 3.2.212 3 .474 3h3.548l4.504-3C8.788 0 9 .2 9 .447v11.106c0 .247-.212.447-.474.447L4.022 9H.474zM12.245 5.8c-.05-.998-.467-1.892-1.15-2.611a.64.64 0 0 0-.907 0 .646.646 0 0 0 0 .91A2.65 2.65 0 0 1 10.966 6a2.65 2.65 0 0 1-.778 1.9.646.646 0 0 0 0 .911.64.64 0 0 0 .908 0A3.941 3.941 0 0 0 12.25 6l-.005-.2z"/>
        <path d="M15 5.875c0-1.772-.636-3.414-1.808-4.658a.67.67 0 0 0-.988 0 .773.773 0 0 0 0 1.048c.91.966 1.4 2.23 1.4 3.61s-.49 2.644-1.4 3.61a.773.773 0 0 0 0 1.048.67.67 0 0 0 .988 0C14.364 9.289 15 7.647 15 5.875z"/>
    </g>
</svg>
